<mxfile host="app.diagrams.net" agent="Mozilla/5.0 (Windows NT 10.0; Win64; x64) AppleWebKit/537.36 (KHTML, like Gecko) Chrome/129.0.0.0 Safari/537.36 Edg/129.0.0.0" version="24.7.17">
  <diagram name="Page-1" id="rCBsWTZLeNcmYftpveVp">
    <mxGraphModel dx="5751" dy="2246" grid="1" gridSize="10" guides="1" tooltips="1" connect="1" arrows="1" fold="1" page="1" pageScale="1" pageWidth="827" pageHeight="1169" math="0" shadow="0">
      <root>
        <mxCell id="0" />
        <mxCell id="1" parent="0" />
        <mxCell id="Dk95UUKOC_0qpjBDZMiK-118" value="+User" style="swimlane;fontStyle=1;align=center;verticalAlign=top;childLayout=stackLayout;horizontal=1;startSize=26.680557250976562;horizontalStack=0;resizeParent=1;resizeParentMax=0;resizeLast=0;collapsible=0;marginBottom=0;" parent="1" vertex="1">
          <mxGeometry x="-1330" y="2.000000000000057" width="160" height="304.68055725097656" as="geometry" />
        </mxCell>
        <mxCell id="Dk95UUKOC_0qpjBDZMiK-119" value="+ id: String" style="text;strokeColor=none;fillColor=none;align=left;verticalAlign=top;spacingLeft=4;spacingRight=4;overflow=hidden;rotatable=0;points=[[0,0.5],[1,0.5]];portConstraint=eastwest;" parent="Dk95UUKOC_0qpjBDZMiK-118" vertex="1">
          <mxGeometry y="26.680557250976562" width="160" height="27" as="geometry" />
        </mxCell>
        <mxCell id="Dk95UUKOC_0qpjBDZMiK-120" value="+ name: String" style="text;strokeColor=none;fillColor=none;align=left;verticalAlign=top;spacingLeft=4;spacingRight=4;overflow=hidden;rotatable=0;points=[[0,0.5],[1,0.5]];portConstraint=eastwest;" parent="Dk95UUKOC_0qpjBDZMiK-118" vertex="1">
          <mxGeometry y="53.68055725097656" width="160" height="27" as="geometry" />
        </mxCell>
        <mxCell id="Dk95UUKOC_0qpjBDZMiK-121" value="+ email: String" style="text;strokeColor=none;fillColor=none;align=left;verticalAlign=top;spacingLeft=4;spacingRight=4;overflow=hidden;rotatable=0;points=[[0,0.5],[1,0.5]];portConstraint=eastwest;" parent="Dk95UUKOC_0qpjBDZMiK-118" vertex="1">
          <mxGeometry y="80.68055725097656" width="160" height="27" as="geometry" />
        </mxCell>
        <mxCell id="Dk95UUKOC_0qpjBDZMiK-125" value="+ phone: String" style="text;strokeColor=none;fillColor=none;align=left;verticalAlign=top;spacingLeft=4;spacingRight=4;overflow=hidden;rotatable=0;points=[[0,0.5],[1,0.5]];portConstraint=eastwest;" parent="Dk95UUKOC_0qpjBDZMiK-118" vertex="1">
          <mxGeometry y="107.68055725097656" width="160" height="27" as="geometry" />
        </mxCell>
        <mxCell id="Dk95UUKOC_0qpjBDZMiK-122" value="- password: String" style="text;strokeColor=none;fillColor=none;align=left;verticalAlign=top;spacingLeft=4;spacingRight=4;overflow=hidden;rotatable=0;points=[[0,0.5],[1,0.5]];portConstraint=eastwest;" parent="Dk95UUKOC_0qpjBDZMiK-118" vertex="1">
          <mxGeometry y="134.68055725097656" width="160" height="27" as="geometry" />
        </mxCell>
        <mxCell id="Dk95UUKOC_0qpjBDZMiK-123" style="line;strokeWidth=1;fillColor=none;align=left;verticalAlign=middle;spacingTop=-1;spacingLeft=3;spacingRight=3;rotatable=0;labelPosition=right;points=[];portConstraint=eastwest;strokeColor=inherit;" parent="Dk95UUKOC_0qpjBDZMiK-118" vertex="1">
          <mxGeometry y="161.68055725097656" width="160" height="8" as="geometry" />
        </mxCell>
        <mxCell id="Dk95UUKOC_0qpjBDZMiK-124" value="+ register()" style="text;strokeColor=none;fillColor=none;align=left;verticalAlign=top;spacingLeft=4;spacingRight=4;overflow=hidden;rotatable=0;points=[[0,0.5],[1,0.5]];portConstraint=eastwest;" parent="Dk95UUKOC_0qpjBDZMiK-118" vertex="1">
          <mxGeometry y="169.68055725097656" width="160" height="27" as="geometry" />
        </mxCell>
        <mxCell id="Dk95UUKOC_0qpjBDZMiK-126" value="+ login()" style="text;strokeColor=none;fillColor=none;align=left;verticalAlign=top;spacingLeft=4;spacingRight=4;overflow=hidden;rotatable=0;points=[[0,0.5],[1,0.5]];portConstraint=eastwest;" parent="Dk95UUKOC_0qpjBDZMiK-118" vertex="1">
          <mxGeometry y="196.68055725097656" width="160" height="27" as="geometry" />
        </mxCell>
        <mxCell id="Dk95UUKOC_0qpjBDZMiK-130" value="+ viewingGames()" style="text;strokeColor=none;fillColor=none;align=left;verticalAlign=top;spacingLeft=4;spacingRight=4;overflow=hidden;rotatable=0;points=[[0,0.5],[1,0.5]];portConstraint=eastwest;" parent="Dk95UUKOC_0qpjBDZMiK-118" vertex="1">
          <mxGeometry y="223.68055725097656" width="160" height="27" as="geometry" />
        </mxCell>
        <mxCell id="Dk95UUKOC_0qpjBDZMiK-127" value="+ sendRequestToFriends()" style="text;strokeColor=none;fillColor=none;align=left;verticalAlign=top;spacingLeft=4;spacingRight=4;overflow=hidden;rotatable=0;points=[[0,0.5],[1,0.5]];portConstraint=eastwest;" parent="Dk95UUKOC_0qpjBDZMiK-118" vertex="1">
          <mxGeometry y="250.68055725097656" width="160" height="27" as="geometry" />
        </mxCell>
        <mxCell id="Dk95UUKOC_0qpjBDZMiK-128" value="+ leaveCall()" style="text;strokeColor=none;fillColor=none;align=left;verticalAlign=top;spacingLeft=4;spacingRight=4;overflow=hidden;rotatable=0;points=[[0,0.5],[1,0.5]];portConstraint=eastwest;" parent="Dk95UUKOC_0qpjBDZMiK-118" vertex="1">
          <mxGeometry y="277.68055725097656" width="160" height="27" as="geometry" />
        </mxCell>
        <mxCell id="Dk95UUKOC_0qpjBDZMiK-131" value="+Organizer" style="swimlane;fontStyle=1;align=center;verticalAlign=top;childLayout=stackLayout;horizontal=1;startSize=26.680557250976562;horizontalStack=0;resizeParent=1;resizeParentMax=0;resizeLast=0;collapsible=0;marginBottom=0;" parent="1" vertex="1">
          <mxGeometry x="-1090" y="2.000000000000057" width="160" height="250.68055725097656" as="geometry" />
        </mxCell>
        <mxCell id="Dk95UUKOC_0qpjBDZMiK-132" value="+ id: String" style="text;strokeColor=none;fillColor=none;align=left;verticalAlign=top;spacingLeft=4;spacingRight=4;overflow=hidden;rotatable=0;points=[[0,0.5],[1,0.5]];portConstraint=eastwest;" parent="Dk95UUKOC_0qpjBDZMiK-131" vertex="1">
          <mxGeometry y="26.680557250976562" width="160" height="27" as="geometry" />
        </mxCell>
        <mxCell id="Dk95UUKOC_0qpjBDZMiK-133" value="+ name: String" style="text;strokeColor=none;fillColor=none;align=left;verticalAlign=top;spacingLeft=4;spacingRight=4;overflow=hidden;rotatable=0;points=[[0,0.5],[1,0.5]];portConstraint=eastwest;" parent="Dk95UUKOC_0qpjBDZMiK-131" vertex="1">
          <mxGeometry y="53.68055725097656" width="160" height="27" as="geometry" />
        </mxCell>
        <mxCell id="Dk95UUKOC_0qpjBDZMiK-134" value="+ email: String" style="text;strokeColor=none;fillColor=none;align=left;verticalAlign=top;spacingLeft=4;spacingRight=4;overflow=hidden;rotatable=0;points=[[0,0.5],[1,0.5]];portConstraint=eastwest;" parent="Dk95UUKOC_0qpjBDZMiK-131" vertex="1">
          <mxGeometry y="80.68055725097656" width="160" height="27" as="geometry" />
        </mxCell>
        <mxCell id="Dk95UUKOC_0qpjBDZMiK-135" value="+ phone: String" style="text;strokeColor=none;fillColor=none;align=left;verticalAlign=top;spacingLeft=4;spacingRight=4;overflow=hidden;rotatable=0;points=[[0,0.5],[1,0.5]];portConstraint=eastwest;" parent="Dk95UUKOC_0qpjBDZMiK-131" vertex="1">
          <mxGeometry y="107.68055725097656" width="160" height="27" as="geometry" />
        </mxCell>
        <mxCell id="Dk95UUKOC_0qpjBDZMiK-137" style="line;strokeWidth=1;fillColor=none;align=left;verticalAlign=middle;spacingTop=-1;spacingLeft=3;spacingRight=3;rotatable=0;labelPosition=right;points=[];portConstraint=eastwest;strokeColor=inherit;" parent="Dk95UUKOC_0qpjBDZMiK-131" vertex="1">
          <mxGeometry y="134.68055725097656" width="160" height="8" as="geometry" />
        </mxCell>
        <mxCell id="Dk95UUKOC_0qpjBDZMiK-138" value="+ createGame()" style="text;strokeColor=none;fillColor=none;align=left;verticalAlign=top;spacingLeft=4;spacingRight=4;overflow=hidden;rotatable=0;points=[[0,0.5],[1,0.5]];portConstraint=eastwest;" parent="Dk95UUKOC_0qpjBDZMiK-131" vertex="1">
          <mxGeometry y="142.68055725097656" width="160" height="27" as="geometry" />
        </mxCell>
        <mxCell id="Dk95UUKOC_0qpjBDZMiK-139" value="+ editGame()" style="text;strokeColor=none;fillColor=none;align=left;verticalAlign=top;spacingLeft=4;spacingRight=4;overflow=hidden;rotatable=0;points=[[0,0.5],[1,0.5]];portConstraint=eastwest;" parent="Dk95UUKOC_0qpjBDZMiK-131" vertex="1">
          <mxGeometry y="169.68055725097656" width="160" height="27" as="geometry" />
        </mxCell>
        <mxCell id="Dk95UUKOC_0qpjBDZMiK-140" value="+ managingPartners()" style="text;strokeColor=none;fillColor=none;align=left;verticalAlign=top;spacingLeft=4;spacingRight=4;overflow=hidden;rotatable=0;points=[[0,0.5],[1,0.5]];portConstraint=eastwest;" parent="Dk95UUKOC_0qpjBDZMiK-131" vertex="1">
          <mxGeometry y="196.68055725097656" width="160" height="27" as="geometry" />
        </mxCell>
        <mxCell id="Dk95UUKOC_0qpjBDZMiK-141" value="+ viewStatistics()" style="text;strokeColor=none;fillColor=none;align=left;verticalAlign=top;spacingLeft=4;spacingRight=4;overflow=hidden;rotatable=0;points=[[0,0.5],[1,0.5]];portConstraint=eastwest;" parent="Dk95UUKOC_0qpjBDZMiK-131" vertex="1">
          <mxGeometry y="223.68055725097656" width="160" height="27" as="geometry" />
        </mxCell>
        <mxCell id="Dk95UUKOC_0qpjBDZMiK-143" value="+Administrator" style="swimlane;fontStyle=1;align=center;verticalAlign=top;childLayout=stackLayout;horizontal=1;startSize=26.680557250976562;horizontalStack=0;resizeParent=1;resizeParentMax=0;resizeLast=0;collapsible=0;marginBottom=0;" parent="1" vertex="1">
          <mxGeometry x="-1330" y="359.63000000000005" width="160" height="223.68055725097656" as="geometry" />
        </mxCell>
        <mxCell id="Dk95UUKOC_0qpjBDZMiK-144" value="+ id: String" style="text;strokeColor=none;fillColor=none;align=left;verticalAlign=top;spacingLeft=4;spacingRight=4;overflow=hidden;rotatable=0;points=[[0,0.5],[1,0.5]];portConstraint=eastwest;" parent="Dk95UUKOC_0qpjBDZMiK-143" vertex="1">
          <mxGeometry y="26.680557250976562" width="160" height="27" as="geometry" />
        </mxCell>
        <mxCell id="Dk95UUKOC_0qpjBDZMiK-145" value="+ name: String" style="text;strokeColor=none;fillColor=none;align=left;verticalAlign=top;spacingLeft=4;spacingRight=4;overflow=hidden;rotatable=0;points=[[0,0.5],[1,0.5]];portConstraint=eastwest;" parent="Dk95UUKOC_0qpjBDZMiK-143" vertex="1">
          <mxGeometry y="53.68055725097656" width="160" height="27" as="geometry" />
        </mxCell>
        <mxCell id="Dk95UUKOC_0qpjBDZMiK-146" value="+ email: String" style="text;strokeColor=none;fillColor=none;align=left;verticalAlign=top;spacingLeft=4;spacingRight=4;overflow=hidden;rotatable=0;points=[[0,0.5],[1,0.5]];portConstraint=eastwest;" parent="Dk95UUKOC_0qpjBDZMiK-143" vertex="1">
          <mxGeometry y="80.68055725097656" width="160" height="27" as="geometry" />
        </mxCell>
        <mxCell id="Dk95UUKOC_0qpjBDZMiK-147" value="- password: String" style="text;strokeColor=none;fillColor=none;align=left;verticalAlign=top;spacingLeft=4;spacingRight=4;overflow=hidden;rotatable=0;points=[[0,0.5],[1,0.5]];portConstraint=eastwest;" parent="Dk95UUKOC_0qpjBDZMiK-143" vertex="1">
          <mxGeometry y="107.68055725097656" width="160" height="27" as="geometry" />
        </mxCell>
        <mxCell id="Dk95UUKOC_0qpjBDZMiK-148" style="line;strokeWidth=1;fillColor=none;align=left;verticalAlign=middle;spacingTop=-1;spacingLeft=3;spacingRight=3;rotatable=0;labelPosition=right;points=[];portConstraint=eastwest;strokeColor=inherit;" parent="Dk95UUKOC_0qpjBDZMiK-143" vertex="1">
          <mxGeometry y="134.68055725097656" width="160" height="8" as="geometry" />
        </mxCell>
        <mxCell id="Dk95UUKOC_0qpjBDZMiK-149" value="+ manageUser()" style="text;strokeColor=none;fillColor=none;align=left;verticalAlign=top;spacingLeft=4;spacingRight=4;overflow=hidden;rotatable=0;points=[[0,0.5],[1,0.5]];portConstraint=eastwest;" parent="Dk95UUKOC_0qpjBDZMiK-143" vertex="1">
          <mxGeometry y="142.68055725097656" width="160" height="27" as="geometry" />
        </mxCell>
        <mxCell id="Dk95UUKOC_0qpjBDZMiK-150" value="+ monitoringStatistics()" style="text;strokeColor=none;fillColor=none;align=left;verticalAlign=top;spacingLeft=4;spacingRight=4;overflow=hidden;rotatable=0;points=[[0,0.5],[1,0.5]];portConstraint=eastwest;" parent="Dk95UUKOC_0qpjBDZMiK-143" vertex="1">
          <mxGeometry y="169.68055725097656" width="160" height="27" as="geometry" />
        </mxCell>
        <mxCell id="Dk95UUKOC_0qpjBDZMiK-151" value="+ feedbackProcessing()" style="text;strokeColor=none;fillColor=none;align=left;verticalAlign=top;spacingLeft=4;spacingRight=4;overflow=hidden;rotatable=0;points=[[0,0.5],[1,0.5]];portConstraint=eastwest;" parent="Dk95UUKOC_0qpjBDZMiK-143" vertex="1">
          <mxGeometry y="196.68055725097656" width="160" height="27" as="geometry" />
        </mxCell>
        <mxCell id="Dk95UUKOC_0qpjBDZMiK-153" value="+Game" style="swimlane;fontStyle=1;align=center;verticalAlign=top;childLayout=stackLayout;horizontal=1;startSize=26.680557250976562;horizontalStack=0;resizeParent=1;resizeParentMax=0;resizeLast=0;collapsible=0;marginBottom=0;" parent="1" vertex="1">
          <mxGeometry x="-1090" y="306.68" width="160" height="277.68055725097656" as="geometry" />
        </mxCell>
        <mxCell id="Dk95UUKOC_0qpjBDZMiK-154" value="+ id: String" style="text;strokeColor=none;fillColor=none;align=left;verticalAlign=top;spacingLeft=4;spacingRight=4;overflow=hidden;rotatable=0;points=[[0,0.5],[1,0.5]];portConstraint=eastwest;" parent="Dk95UUKOC_0qpjBDZMiK-153" vertex="1">
          <mxGeometry y="26.680557250976562" width="160" height="27" as="geometry" />
        </mxCell>
        <mxCell id="Dk95UUKOC_0qpjBDZMiK-155" value="+ name: String" style="text;strokeColor=none;fillColor=none;align=left;verticalAlign=top;spacingLeft=4;spacingRight=4;overflow=hidden;rotatable=0;points=[[0,0.5],[1,0.5]];portConstraint=eastwest;" parent="Dk95UUKOC_0qpjBDZMiK-153" vertex="1">
          <mxGeometry y="53.68055725097656" width="160" height="27" as="geometry" />
        </mxCell>
        <mxCell id="Dk95UUKOC_0qpjBDZMiK-156" value="+ description: String" style="text;strokeColor=none;fillColor=none;align=left;verticalAlign=top;spacingLeft=4;spacingRight=4;overflow=hidden;rotatable=0;points=[[0,0.5],[1,0.5]];portConstraint=eastwest;" parent="Dk95UUKOC_0qpjBDZMiK-153" vertex="1">
          <mxGeometry y="80.68055725097656" width="160" height="27" as="geometry" />
        </mxCell>
        <mxCell id="Dk95UUKOC_0qpjBDZMiK-157" value="+ gameStatus: String" style="text;strokeColor=none;fillColor=none;align=left;verticalAlign=top;spacingLeft=4;spacingRight=4;overflow=hidden;rotatable=0;points=[[0,0.5],[1,0.5]];portConstraint=eastwest;" parent="Dk95UUKOC_0qpjBDZMiK-153" vertex="1">
          <mxGeometry y="107.68055725097656" width="160" height="27" as="geometry" />
        </mxCell>
        <mxCell id="Dk95UUKOC_0qpjBDZMiK-162" value="+ dateProccesing : Date" style="text;strokeColor=none;fillColor=none;align=left;verticalAlign=top;spacingLeft=4;spacingRight=4;overflow=hidden;rotatable=0;points=[[0,0.5],[1,0.5]];portConstraint=eastwest;" parent="Dk95UUKOC_0qpjBDZMiK-153" vertex="1">
          <mxGeometry y="134.68055725097656" width="160" height="27" as="geometry" />
        </mxCell>
        <mxCell id="Dk95UUKOC_0qpjBDZMiK-158" style="line;strokeWidth=1;fillColor=none;align=left;verticalAlign=middle;spacingTop=-1;spacingLeft=3;spacingRight=3;rotatable=0;labelPosition=right;points=[];portConstraint=eastwest;strokeColor=inherit;" parent="Dk95UUKOC_0qpjBDZMiK-153" vertex="1">
          <mxGeometry y="161.68055725097656" width="160" height="8" as="geometry" />
        </mxCell>
        <mxCell id="Dk95UUKOC_0qpjBDZMiK-159" value="+ startGame()" style="text;strokeColor=none;fillColor=none;align=left;verticalAlign=top;spacingLeft=4;spacingRight=4;overflow=hidden;rotatable=0;points=[[0,0.5],[1,0.5]];portConstraint=eastwest;" parent="Dk95UUKOC_0qpjBDZMiK-153" vertex="1">
          <mxGeometry y="169.68055725097656" width="160" height="27" as="geometry" />
        </mxCell>
        <mxCell id="Dk95UUKOC_0qpjBDZMiK-160" value="+ finishGame()" style="text;strokeColor=none;fillColor=none;align=left;verticalAlign=top;spacingLeft=4;spacingRight=4;overflow=hidden;rotatable=0;points=[[0,0.5],[1,0.5]];portConstraint=eastwest;" parent="Dk95UUKOC_0qpjBDZMiK-153" vertex="1">
          <mxGeometry y="196.68055725097656" width="160" height="27" as="geometry" />
        </mxCell>
        <mxCell id="Dk95UUKOC_0qpjBDZMiK-161" value="+ getStatistics()" style="text;strokeColor=none;fillColor=none;align=left;verticalAlign=top;spacingLeft=4;spacingRight=4;overflow=hidden;rotatable=0;points=[[0,0.5],[1,0.5]];portConstraint=eastwest;" parent="Dk95UUKOC_0qpjBDZMiK-153" vertex="1">
          <mxGeometry y="223.68055725097656" width="160" height="27" as="geometry" />
        </mxCell>
        <mxCell id="Dk95UUKOC_0qpjBDZMiK-163" value="+ updateStatus()" style="text;strokeColor=none;fillColor=none;align=left;verticalAlign=top;spacingLeft=4;spacingRight=4;overflow=hidden;rotatable=0;points=[[0,0.5],[1,0.5]];portConstraint=eastwest;" parent="Dk95UUKOC_0qpjBDZMiK-153" vertex="1">
          <mxGeometry y="250.68055725097656" width="160" height="27" as="geometry" />
        </mxCell>
        <mxCell id="Dk95UUKOC_0qpjBDZMiK-168" style="edgeStyle=orthogonalEdgeStyle;rounded=0;orthogonalLoop=1;jettySize=auto;html=1;endArrow=open;endFill=0;exitX=0.5;exitY=0;exitDx=0;exitDy=0;" parent="1" source="Dk95UUKOC_0qpjBDZMiK-143" edge="1">
          <mxGeometry relative="1" as="geometry">
            <mxPoint x="-1250" y="306.68" as="targetPoint" />
            <mxPoint x="-1250" y="306.68" as="sourcePoint" />
          </mxGeometry>
        </mxCell>
        <mxCell id="Dk95UUKOC_0qpjBDZMiK-169" value="&lt;strong&gt;+ Inheritance&lt;/strong&gt;" style="edgeLabel;html=1;align=center;verticalAlign=middle;resizable=0;points=[];" parent="Dk95UUKOC_0qpjBDZMiK-168" vertex="1" connectable="0">
          <mxGeometry x="-0.0615" y="1" relative="1" as="geometry">
            <mxPoint as="offset" />
          </mxGeometry>
        </mxCell>
        <mxCell id="Dk95UUKOC_0qpjBDZMiK-170" style="edgeStyle=orthogonalEdgeStyle;rounded=0;orthogonalLoop=1;jettySize=auto;html=1;endArrow=open;endFill=0;exitX=0.003;exitY=0.696;exitDx=0;exitDy=0;exitPerimeter=0;entryX=0.989;entryY=-0.111;entryDx=0;entryDy=0;entryPerimeter=0;" parent="1" source="Dk95UUKOC_0qpjBDZMiK-137" target="Dk95UUKOC_0qpjBDZMiK-124" edge="1">
          <mxGeometry relative="1" as="geometry">
            <mxPoint x="-1240" y="316.68" as="targetPoint" />
            <mxPoint x="-1240" y="369.68" as="sourcePoint" />
          </mxGeometry>
        </mxCell>
        <mxCell id="Dk95UUKOC_0qpjBDZMiK-171" value="&lt;strong&gt;+ Inheritance&lt;/strong&gt;" style="edgeLabel;html=1;align=center;verticalAlign=middle;resizable=0;points=[];" parent="Dk95UUKOC_0qpjBDZMiK-170" vertex="1" connectable="0">
          <mxGeometry x="-0.0615" y="1" relative="1" as="geometry">
            <mxPoint as="offset" />
          </mxGeometry>
        </mxCell>
        <mxCell id="Dk95UUKOC_0qpjBDZMiK-172" value="+Feedbacks" style="swimlane;fontStyle=1;align=center;verticalAlign=top;childLayout=stackLayout;horizontal=1;startSize=27.574073791503906;horizontalStack=0;resizeParent=1;resizeParentMax=0;resizeLast=0;collapsible=0;marginBottom=0;" parent="1" vertex="1">
          <mxGeometry x="-1612" y="56.62000000000006" width="160" height="175.5740737915039" as="geometry" />
        </mxCell>
        <mxCell id="Dk95UUKOC_0qpjBDZMiK-173" value="- id: String" style="text;strokeColor=none;fillColor=none;align=left;verticalAlign=top;spacingLeft=4;spacingRight=4;overflow=hidden;rotatable=0;points=[[0,0.5],[1,0.5]];portConstraint=eastwest;" parent="Dk95UUKOC_0qpjBDZMiK-172" vertex="1">
          <mxGeometry y="27.574073791503906" width="160" height="28" as="geometry" />
        </mxCell>
        <mxCell id="Dk95UUKOC_0qpjBDZMiK-174" value="+ comment: String" style="text;strokeColor=none;fillColor=none;align=left;verticalAlign=top;spacingLeft=4;spacingRight=4;overflow=hidden;rotatable=0;points=[[0,0.5],[1,0.5]];portConstraint=eastwest;" parent="Dk95UUKOC_0qpjBDZMiK-172" vertex="1">
          <mxGeometry y="55.574073791503906" width="160" height="28" as="geometry" />
        </mxCell>
        <mxCell id="Dk95UUKOC_0qpjBDZMiK-175" value="+ point: Integer" style="text;strokeColor=none;fillColor=none;align=left;verticalAlign=top;spacingLeft=4;spacingRight=4;overflow=hidden;rotatable=0;points=[[0,0.5],[1,0.5]];portConstraint=eastwest;" parent="Dk95UUKOC_0qpjBDZMiK-172" vertex="1">
          <mxGeometry y="83.5740737915039" width="160" height="28" as="geometry" />
        </mxCell>
        <mxCell id="Dk95UUKOC_0qpjBDZMiK-176" style="line;strokeWidth=1;fillColor=none;align=left;verticalAlign=middle;spacingTop=-1;spacingLeft=3;spacingRight=3;rotatable=0;labelPosition=right;points=[];portConstraint=eastwest;strokeColor=inherit;" parent="Dk95UUKOC_0qpjBDZMiK-172" vertex="1">
          <mxGeometry y="111.5740737915039" width="160" height="8" as="geometry" />
        </mxCell>
        <mxCell id="Dk95UUKOC_0qpjBDZMiK-177" value="+ addFeedBack(clientid,rate)" style="text;strokeColor=none;fillColor=none;align=left;verticalAlign=top;spacingLeft=4;spacingRight=4;overflow=hidden;rotatable=0;points=[[0,0.5],[1,0.5]];portConstraint=eastwest;" parent="Dk95UUKOC_0qpjBDZMiK-172" vertex="1">
          <mxGeometry y="119.5740737915039" width="160" height="28" as="geometry" />
        </mxCell>
        <mxCell id="Dk95UUKOC_0qpjBDZMiK-178" value="+ updateFeedback(clientid,reate)" style="text;strokeColor=none;fillColor=none;align=left;verticalAlign=top;spacingLeft=4;spacingRight=4;overflow=hidden;rotatable=0;points=[[0,0.5],[1,0.5]];portConstraint=eastwest;" parent="Dk95UUKOC_0qpjBDZMiK-172" vertex="1">
          <mxGeometry y="147.5740737915039" width="160" height="28" as="geometry" />
        </mxCell>
        <mxCell id="Dk95UUKOC_0qpjBDZMiK-179" value="" style="edgeStyle=orthogonalEdgeStyle;rounded=0;orthogonalLoop=1;jettySize=auto;html=1;entryX=0.5;entryY=0;entryDx=0;entryDy=0;endArrow=none;endFill=0;startArrow=diamondThin;startFill=1;exitX=-0.001;exitY=0.878;exitDx=0;exitDy=0;exitPerimeter=0;" parent="1" target="Dk95UUKOC_0qpjBDZMiK-172" edge="1" source="Dk95UUKOC_0qpjBDZMiK-122">
          <mxGeometry relative="1" as="geometry">
            <mxPoint x="-1330" y="169.62000000000006" as="sourcePoint" />
          </mxGeometry>
        </mxCell>
        <mxCell id="Dk95UUKOC_0qpjBDZMiK-180" value="&lt;b&gt;+Composition&lt;/b&gt;" style="edgeLabel;html=1;align=center;verticalAlign=middle;resizable=0;points=[];" parent="Dk95UUKOC_0qpjBDZMiK-179" vertex="1" connectable="0">
          <mxGeometry x="-0.2201" y="4" relative="1" as="geometry">
            <mxPoint as="offset" />
          </mxGeometry>
        </mxCell>
        <mxCell id="Dk95UUKOC_0qpjBDZMiK-181" style="edgeStyle=orthogonalEdgeStyle;rounded=0;orthogonalLoop=1;jettySize=auto;html=1;entryX=1.009;entryY=-0.003;entryDx=0;entryDy=0;endArrow=open;endFill=0;startArrow=diamondThin;startFill=0;exitX=0.987;exitY=-0.137;exitDx=0;exitDy=0;entryPerimeter=0;exitPerimeter=0;" parent="1" source="Dk95UUKOC_0qpjBDZMiK-138" target="Dk95UUKOC_0qpjBDZMiK-159" edge="1">
          <mxGeometry relative="1" as="geometry">
            <mxPoint x="-1170" y="278.68" as="sourcePoint" />
            <mxPoint x="-932" y="166.68" as="targetPoint" />
            <Array as="points">
              <mxPoint x="-870" y="140.68" />
              <mxPoint x="-870" y="476.68000000000006" />
            </Array>
          </mxGeometry>
        </mxCell>
        <mxCell id="Dk95UUKOC_0qpjBDZMiK-182" value="&lt;b&gt;+Aggragation&lt;/b&gt;" style="edgeLabel;html=1;align=center;verticalAlign=middle;resizable=0;points=[];" parent="Dk95UUKOC_0qpjBDZMiK-181" vertex="1" connectable="0">
          <mxGeometry x="-0.1997" relative="1" as="geometry">
            <mxPoint y="9" as="offset" />
          </mxGeometry>
        </mxCell>
        <mxCell id="VFqa4txOzI9wshkWBONn-109" value="+Feedbacks" style="swimlane;fontStyle=1;align=center;verticalAlign=top;childLayout=stackLayout;horizontal=1;startSize=27.574073791503906;horizontalStack=0;resizeParent=1;resizeParentMax=0;resizeLast=0;collapsible=0;marginBottom=0;" vertex="1" parent="1">
          <mxGeometry x="-1589" y="326.6799999999999" width="160" height="175.5740737915039" as="geometry" />
        </mxCell>
        <mxCell id="VFqa4txOzI9wshkWBONn-110" value="- id: String" style="text;strokeColor=none;fillColor=none;align=left;verticalAlign=top;spacingLeft=4;spacingRight=4;overflow=hidden;rotatable=0;points=[[0,0.5],[1,0.5]];portConstraint=eastwest;" vertex="1" parent="VFqa4txOzI9wshkWBONn-109">
          <mxGeometry y="27.574073791503906" width="160" height="28" as="geometry" />
        </mxCell>
        <mxCell id="VFqa4txOzI9wshkWBONn-111" value="+ comment: String" style="text;strokeColor=none;fillColor=none;align=left;verticalAlign=top;spacingLeft=4;spacingRight=4;overflow=hidden;rotatable=0;points=[[0,0.5],[1,0.5]];portConstraint=eastwest;" vertex="1" parent="VFqa4txOzI9wshkWBONn-109">
          <mxGeometry y="55.574073791503906" width="160" height="28" as="geometry" />
        </mxCell>
        <mxCell id="VFqa4txOzI9wshkWBONn-112" value="+ point: Integer" style="text;strokeColor=none;fillColor=none;align=left;verticalAlign=top;spacingLeft=4;spacingRight=4;overflow=hidden;rotatable=0;points=[[0,0.5],[1,0.5]];portConstraint=eastwest;" vertex="1" parent="VFqa4txOzI9wshkWBONn-109">
          <mxGeometry y="83.5740737915039" width="160" height="28" as="geometry" />
        </mxCell>
        <mxCell id="VFqa4txOzI9wshkWBONn-113" style="line;strokeWidth=1;fillColor=none;align=left;verticalAlign=middle;spacingTop=-1;spacingLeft=3;spacingRight=3;rotatable=0;labelPosition=right;points=[];portConstraint=eastwest;strokeColor=inherit;" vertex="1" parent="VFqa4txOzI9wshkWBONn-109">
          <mxGeometry y="111.5740737915039" width="160" height="8" as="geometry" />
        </mxCell>
        <mxCell id="VFqa4txOzI9wshkWBONn-114" value="+ addFeedBack(clientid,rate)" style="text;strokeColor=none;fillColor=none;align=left;verticalAlign=top;spacingLeft=4;spacingRight=4;overflow=hidden;rotatable=0;points=[[0,0.5],[1,0.5]];portConstraint=eastwest;" vertex="1" parent="VFqa4txOzI9wshkWBONn-109">
          <mxGeometry y="119.5740737915039" width="160" height="28" as="geometry" />
        </mxCell>
        <mxCell id="VFqa4txOzI9wshkWBONn-115" value="+ updateFeedback(clientid,reate)" style="text;strokeColor=none;fillColor=none;align=left;verticalAlign=top;spacingLeft=4;spacingRight=4;overflow=hidden;rotatable=0;points=[[0,0.5],[1,0.5]];portConstraint=eastwest;" vertex="1" parent="VFqa4txOzI9wshkWBONn-109">
          <mxGeometry y="147.5740737915039" width="160" height="28" as="geometry" />
        </mxCell>
        <mxCell id="VFqa4txOzI9wshkWBONn-116" value="" style="edgeStyle=orthogonalEdgeStyle;rounded=0;orthogonalLoop=1;jettySize=auto;html=1;entryX=0.5;entryY=0;entryDx=0;entryDy=0;endArrow=open;endFill=0;startArrow=diamondThin;startFill=1;exitX=-0.006;exitY=0.182;exitDx=0;exitDy=0;exitPerimeter=0;" edge="1" parent="1" source="Dk95UUKOC_0qpjBDZMiK-124" target="VFqa4txOzI9wshkWBONn-109">
          <mxGeometry relative="1" as="geometry">
            <mxPoint x="-1358" y="786.6800000000001" as="sourcePoint" />
            <mxPoint x="-1560" y="673.6800000000001" as="targetPoint" />
            <Array as="points">
              <mxPoint x="-1390" y="176.68" />
              <mxPoint x="-1390" y="306.68" />
              <mxPoint x="-1509" y="306.68" />
            </Array>
          </mxGeometry>
        </mxCell>
        <mxCell id="VFqa4txOzI9wshkWBONn-117" value="&lt;b&gt;+Composition&lt;/b&gt;" style="edgeLabel;html=1;align=center;verticalAlign=middle;resizable=0;points=[];" vertex="1" connectable="0" parent="VFqa4txOzI9wshkWBONn-116">
          <mxGeometry x="-0.2201" y="4" relative="1" as="geometry">
            <mxPoint as="offset" />
          </mxGeometry>
        </mxCell>
        <mxCell id="VFqa4txOzI9wshkWBONn-118" value="" style="endArrow=open;endFill=0;endSize=12;html=1;rounded=0;entryX=1.003;entryY=0.087;entryDx=0;entryDy=0;entryPerimeter=0;exitX=0;exitY=0.085;exitDx=0;exitDy=0;exitPerimeter=0;" edge="1" parent="1" source="Dk95UUKOC_0qpjBDZMiK-143">
          <mxGeometry width="160" relative="1" as="geometry">
            <mxPoint x="-1333.8400000000001" y="371.4850695343018" as="sourcePoint" />
            <mxPoint x="-1429" y="341.95494441986074" as="targetPoint" />
            <Array as="points">
              <mxPoint x="-1370" y="378.68" />
              <mxPoint x="-1370" y="341.68" />
            </Array>
          </mxGeometry>
        </mxCell>
        <mxCell id="VFqa4txOzI9wshkWBONn-119" value="&lt;b&gt;+ Association&lt;/b&gt;" style="edgeLabel;html=1;align=center;verticalAlign=middle;resizable=0;points=[];" vertex="1" connectable="0" parent="VFqa4txOzI9wshkWBONn-118">
          <mxGeometry x="0.2941" y="4" relative="1" as="geometry">
            <mxPoint x="1" y="14" as="offset" />
          </mxGeometry>
        </mxCell>
      </root>
    </mxGraphModel>
  </diagram>
</mxfile>
